<svg width="40" height="40" viewBox="0 0 40 40" fill="none" xmlns="http://www.w3.org/2000/svg">
<path d="M36.6667 14.1419C36.6667 20.1253 31.8167 24.9753 25.8333 24.9753C25.55 24.9753 25.25 24.9586 24.9667 24.9419C24.55 19.6586 20.3166 15.4252 15.0333 15.0086C15.0166 14.7252 15 14.4253 15 14.1419C15 8.15859 19.85 3.30859 25.8333 3.30859C31.8167 3.30859 36.6667 8.15859 36.6667 14.1419Z" stroke="#0078D4" stroke-width="2" stroke-linecap="round" stroke-linejoin="round"/>
<path d="M25.0104 25.8333C25.0104 31.8167 20.1604 36.6667 14.1771 36.6667C8.19375 36.6667 3.34375 31.8167 3.34375 25.8333C3.34375 19.85 8.19375 15 14.1771 15C14.4604 15 14.7604 15.0166 15.0437 15.0333C20.3271 15.45 24.5604 19.6833 24.9771 24.9667C24.9938 25.25 25.0104 25.55 25.0104 25.8333Z" stroke="#0078D4" stroke-width="2" stroke-linecap="round" stroke-linejoin="round"/>
<path d="M12.7 24.3914L14.1667 21.6914L15.6333 24.3914L18.3333 25.8581L15.6333 27.3247L14.1667 30.0247L12.7 27.3247L10 25.8581L12.7 24.3914Z" stroke="#0078D4" stroke-width="2" stroke-linecap="round" stroke-linejoin="round"/>
</svg>
