<svg width="40" height="40" viewBox="0 0 40 40" fill="none" xmlns="http://www.w3.org/2000/svg">
<path d="M26.25 3.75H13.75V10H26.25V3.75Z" stroke="#7EBDD9" stroke-width="2" stroke-linecap="round" stroke-linejoin="round"/>
<path d="M26.25 6.25H31.25C31.5815 6.25 31.8995 6.3817 32.1339 6.61612C32.3683 6.85054 32.5 7.16848 32.5 7.5V33.75C32.5 34.0815 32.3683 34.3995 32.1339 34.6339C31.8995 34.8683 31.5815 35 31.25 35H8.75C8.41848 35 8.10054 34.8683 7.86612 34.6339C7.6317 34.3995 7.5 34.0815 7.5 33.75V7.5C7.5 7.16848 7.6317 6.85054 7.86612 6.61612C8.10054 6.3817 8.41848 6.25 8.75 6.25H13.75" stroke="#7EBDD9" stroke-width="2" stroke-linecap="round" stroke-linejoin="round"/>
<path d="M15 23.75H25" stroke="#7EBDD9" stroke-width="2" stroke-linecap="round" stroke-linejoin="round"/>
<path d="M15 18.75H25" stroke="#7EBDD9" stroke-width="2" stroke-linecap="round" stroke-linejoin="round"/>
</svg>
