<svg width="16" height="16" viewBox="0 0 16 16" fill="none" xmlns="http://www.w3.org/2000/svg">
<path d="M8.00006 11.5C9.93306 11.5 11.5001 9.933 11.5001 8C11.5001 6.067 9.93306 4.5 8.00006 4.5C6.06706 4.5 4.50006 6.067 4.50006 8C4.50006 9.933 6.06706 11.5 8.00006 11.5Z" stroke="#242424" stroke-linecap="round" stroke-linejoin="round"/>
<path d="M13.5001 7.50004L14.1443 6.53377C14.1862 6.47152 14.214 6.40079 14.2256 6.3266C14.2371 6.25242 14.2322 6.17659 14.2112 6.10452C14.0897 5.70433 13.9295 5.31692 13.7329 4.94775C13.6969 4.88203 13.6469 4.82507 13.5863 4.78094C13.5258 4.73681 13.4562 4.70659 13.3826 4.69245L12.2427 4.46445L11.5356 3.75736L11.3076 2.61745C11.2935 2.54385 11.2633 2.47429 11.2191 2.41373C11.175 2.35317 11.1181 2.3031 11.0523 2.26709C10.6831 2.07058 10.2957 1.91043 9.89552 1.78892C9.82345 1.76788 9.74762 1.76297 9.67344 1.77454C9.59925 1.7861 9.52852 1.81386 9.46627 1.85584L8.50006 2.49998H7.50006L6.53385 1.85584C6.4716 1.81386 6.40087 1.7861 6.32668 1.77454C6.2525 1.76297 6.17667 1.76788 6.1046 1.78892C5.70441 1.91043 5.31699 2.07058 4.9478 2.26709C4.88208 2.30309 4.82511 2.35317 4.78097 2.41373C4.73684 2.4743 4.70662 2.54386 4.69248 2.61746L4.46454 3.7573L3.75738 4.46445L2.61753 4.69239C2.54394 4.70653 2.47438 4.73675 2.41382 4.78088C2.35325 4.82502 2.30318 4.88198 2.26718 4.9477C2.07063 5.31689 1.91046 5.70432 1.78893 6.10452C1.76789 6.17659 1.76299 6.25242 1.77455 6.3266C1.78612 6.40078 1.81388 6.47151 1.85586 6.53376L2.5 7.49998V8.49998L1.85585 9.46619C1.81388 9.52844 1.78612 9.59917 1.77456 9.67335C1.76299 9.74754 1.7679 9.82336 1.78893 9.89543C1.91043 10.2956 2.07058 10.6831 2.26711 11.0523C2.30311 11.118 2.35318 11.1749 2.41375 11.2191C2.47431 11.2632 2.54387 11.2934 2.61746 11.3076L3.75738 11.5356L4.46448 12.2427L4.69242 13.3826C4.70656 13.4562 4.73678 13.5257 4.78091 13.5863C4.82504 13.6469 4.882 13.6969 4.94772 13.7329C5.31689 13.9295 5.70431 14.0896 6.1045 14.2111C6.17657 14.2321 6.25238 14.2371 6.32656 14.2255C6.40074 14.2139 6.47147 14.1862 6.53371 14.1442L7.5 13.5H8.5L9.46627 14.1442C9.52852 14.1862 9.59925 14.214 9.67343 14.2255C9.74762 14.2371 9.82344 14.2322 9.89552 14.2112C10.2957 14.0897 10.6831 13.9295 11.0523 13.733C11.118 13.697 11.175 13.6469 11.2191 13.5864C11.2632 13.5258 11.2934 13.4562 11.3076 13.3826L11.5356 12.2427L12.2427 11.5356L13.3826 11.3076C13.4562 11.2935 13.5257 11.2633 13.5863 11.2191C13.6469 11.175 13.6969 11.118 13.7329 11.0523C13.9295 10.6831 14.0897 10.2957 14.2112 9.89556C14.2322 9.82348 14.2371 9.74766 14.2256 9.67347C14.214 9.59929 14.1862 9.52856 14.1443 9.46631L13.5001 8.50004V7.50004Z" stroke="#242424" stroke-linecap="round" stroke-linejoin="round"/>
</svg>
