<svg width="16" height="16" viewBox="0 0 16 16" fill="none" xmlns="http://www.w3.org/2000/svg">
<path d="M8.05932 8L7.99297 14.4256" stroke="#242424" stroke-linecap="round" stroke-linejoin="round"/>
<path d="M13.743 10.9583V5.04173C13.743 4.95319 13.7195 4.86623 13.6748 4.78975C13.6302 4.71328 13.5661 4.65002 13.489 4.60645L8.23899 1.63906C8.16394 1.59664 8.07918 1.57434 7.99297 1.57434C7.90675 1.57434 7.82199 1.59664 7.74694 1.63906L2.49694 4.60645C2.41985 4.65002 2.35572 4.71328 2.3111 4.78975C2.26648 4.86623 2.24297 4.95319 2.24297 5.04173V10.9583C2.24297 11.0468 2.26648 11.1338 2.3111 11.2102C2.35572 11.2867 2.41985 11.35 2.49694 11.3935L7.74694 14.3609C7.82199 14.4034 7.90675 14.4257 7.99297 14.4257C8.07918 14.4257 8.16394 14.4034 8.23899 14.3609L13.489 11.3935C13.5661 11.35 13.6302 11.2867 13.6748 11.2102C13.7195 11.1338 13.743 11.0468 13.743 10.9583V10.9583Z" stroke="#242424" stroke-linecap="round" stroke-linejoin="round"/>
<path d="M13.6745 4.78914L8.05931 7.99995L2.31187 4.78845" stroke="#242424" stroke-linecap="round" stroke-linejoin="round"/>
<path d="M11.0639 9.282V6.282L5.26519 3.04187" stroke="#242424" stroke-linecap="round" stroke-linejoin="round"/>
</svg>
