<svg xmlns="http://www.w3.org/2000/svg" width="16" height="16" viewBox="0 0 16 16" fill="none">
<path d="M4.98926 6.23242H1.98926V3.23242" stroke="#00CC6A" stroke-linecap="round" stroke-linejoin="round"/>
<path d="M11.8888 4.11091C11.378 3.60019 10.7717 3.19506 10.1044 2.91866C9.43713 2.64226 8.72194 2.5 7.99967 2.5C7.27739 2.5 6.5622 2.64226 5.89491 2.91866C5.22762 3.19506 4.6213 3.60019 4.11058 4.11091L1.98926 6.23223" stroke="#00CC6A" stroke-linecap="round" stroke-linejoin="round"/>
<path d="M11.0107 9.76758H14.0107V12.7676" stroke="#00CC6A" stroke-linecap="round" stroke-linejoin="round"/>
<path d="M4.11133 11.8889C4.62205 12.3996 5.22837 12.8047 5.89566 13.0811C6.56295 13.3576 7.27815 13.4998 8.00042 13.4998C8.72269 13.4998 9.43788 13.3576 10.1052 13.0811C10.7725 12.8047 11.3788 12.3996 11.8895 11.8889L14.0108 9.76758" stroke="#00CC6A" stroke-linecap="round" stroke-linejoin="round"/>
</svg>